<?xml version="1.0" standalone="no"?>
<!DOCTYPE svg PUBLIC "-//W3C//DTD SVG 20010904//EN"
 "http://www.w3.org/TR/2001/REC-SVG-20010904/DTD/svg10.dtd">
<svg version="1.0" xmlns="http://www.w3.org/2000/svg"
 width="200.000000pt" height="200.000000pt" viewBox="0 0 200.000000 300.000000"
 preserveAspectRatio="xMidYMid meet">

<g transform="translate(0.000000,300.000000) scale(0.100000,-0.100000)"
fill="#000000" stroke="none">
<path d="M1345 1949 c-49 -4 -124 -17 -166 -28 -101 -26 -213 -77 -203 -92 4
-7 3 -9 -4 -6 -17 12 -109 -69 -153 -135 -23 -35 -52 -74 -64 -88 -13 -14 -26
-45 -30 -70 -4 -24 -15 -50 -24 -57 -22 -16 -7 -27 59 -42 70 -17 104 -12 108
14 3 17 1 18 -8 5 -10 -13 -11 -12 -6 3 3 10 6 25 6 32 0 7 9 23 20 36 l21 24
-16 -32 c-19 -40 -19 -40 4 -46 16 -4 18 -10 11 -46 -9 -52 8 -81 45 -74 13 3
22 9 19 14 -3 5 2 12 10 15 14 6 23 34 11 34 -10 0 -43 -39 -37 -44 3 -3 1 -6
-4 -6 -6 0 -15 5 -22 12 -15 15 -16 52 -1 43 5 -4 22 -4 35 -1 21 6 24 9 14
21 -7 8 -9 15 -4 15 5 1 -2 10 -15 20 -18 16 -27 18 -37 9 -11 -9 -14 -9 -14
0 0 6 11 16 25 23 30 13 52 -1 71 -48 22 -53 -3 -128 -40 -119 -12 3 -15 2 -8
-1 6 -3 10 -10 6 -15 -3 -5 0 -9 6 -9 15 0 60 50 60 66 0 8 7 14 15 14 14 0
14 -4 0 -36 -8 -20 -12 -41 -8 -48 3 -6 3 -8 -1 -4 -4 3 -22 2 -41 -3 -33 -10
-91 4 -82 18 3 5 -18 7 -46 7 -29 -1 -91 -2 -139 -3 -49 0 -88 -5 -88 -10 0
-4 51 -11 113 -15 61 -4 126 -9 142 -11 17 -2 84 -6 150 -10 66 -3 149 -8 185
-11 113 -9 364 -20 387 -16 12 2 24 9 26 16 3 8 -26 12 -97 14 -191 5 -471 24
-482 33 -15 12 -6 49 11 49 7 0 15 6 17 12 6 18 156 11 185 -8 14 -8 34 -11
52 -8 17 4 37 2 44 -4 10 -8 21 -7 43 4 21 11 54 15 124 13 52 -2 101 1 109 5
9 6 12 5 8 -1 -3 -5 1 -22 9 -37 18 -36 18 -42 -1 -26 -20 17 -255 27 -255 11
0 -6 8 -11 18 -12 66 -2 182 -10 210 -15 27 -4 31 -8 22 -19 -7 -8 -9 -18 -6
-23 7 -12 120 -23 166 -16 32 5 40 12 59 51 12 24 19 49 15 55 -3 5 -14 -7
-24 -29 -24 -55 -44 -69 -75 -53 -13 7 -30 10 -38 7 -8 -3 -20 0 -26 6 -6 6
-14 8 -17 4 -4 -4 8 -14 27 -22 33 -16 33 -16 4 -10 -38 8 -60 26 -45 35 8 5
4 20 -11 49 -12 24 -22 56 -21 72 1 32 -14 39 -22 12 -2 -10 -2 0 1 22 3 22
12 55 20 72 14 30 18 32 52 27 20 -3 51 -17 69 -31 58 -44 68 -106 27 -179
-27 -48 -29 -54 -17 -54 12 0 57 73 54 88 -2 8 1 11 7 7 13 -8 13 -8 2 33 -12
39 -8 40 26 6 20 -20 28 -23 35 -12 8 10 9 10 5 -2 -2 -8 -11 -14 -21 -12 -9
2 -16 -2 -16 -8 0 -5 6 -9 13 -8 16 4 11 -26 -13 -76 -11 -22 -18 -41 -17 -42
1 -1 78 11 170 26 181 30 198 37 217 96 9 26 17 34 36 34 13 0 24 4 24 10 0 5
-15 9 -32 8 -18 -1 -42 2 -53 6 -13 5 -11 2 5 -8 l25 -15 -31 -1 c-17 0 -33
-3 -36 -6 -4 -3 -48 -7 -99 -9 -60 -3 -88 -1 -79 5 8 6 10 10 5 10 -6 0 -16
-5 -22 -11 -8 -8 -16 -8 -29 0 -11 6 -31 15 -46 21 -18 6 -36 26 -52 57 -44
88 -68 101 -161 94 -56 -5 -95 -61 -95 -137 l0 -47 -212 8 c-117 4 -240 9
-273 11 -33 2 -70 3 -82 3 -13 1 -23 5 -23 11 0 6 30 8 78 5 l77 -4 -64 9
c-90 13 -94 15 -87 48 5 21 4 24 -5 12 -9 -12 -10 -11 -6 8 3 13 1 20 -5 16
-5 -3 -8 2 -6 12 2 11 -3 19 -12 19 -8 1 -14 6 -13 13 2 6 -4 9 -12 6 -11 -5
-13 4 -9 42 2 26 6 49 7 50 1 0 53 4 116 7 105 6 112 5 106 -11 -13 -30 -18
-198 -6 -218 8 -15 10 6 11 86 1 163 -13 150 155 150 l143 0 -9 -37 c-5 -21
-9 -77 -9 -125 l0 -88 -42 0 c-75 0 -35 -7 72 -13 61 -3 95 -2 80 3 -14 4 -39
8 -56 9 -18 1 -34 7 -38 16 -7 20 -1 196 9 218 6 15 23 17 144 17 75 0 173 -3
218 -7 l82 -6 -6 -27 c-10 -52 33 -90 65 -58 17 17 15 63 -3 78 -13 11 -18 11
-28 0 -8 -8 -8 -11 -1 -7 17 10 37 -19 29 -43 -9 -27 -19 -25 -40 6 -9 15 -11
23 -4 19 8 -5 10 -4 5 4 -4 6 -2 19 5 27 15 18 74 11 100 -12 9 -8 20 -14 25
-13 21 3 26 -2 15 -15 -10 -12 -8 -13 8 -9 12 3 18 9 15 14 -8 13 3 11 35 -6
16 -8 31 -11 35 -8 11 11 6 49 -9 69 -12 15 -14 15 -9 2 10 -29 -79 -44 -110
-19 -13 12 -40 16 -102 15 -46 0 -81 3 -79 7 3 4 -82 6 -189 4 -191 -3 -194
-3 -188 18 5 20 9 20 266 14 144 -4 288 -9 321 -12 51 -4 55 -3 25 5 -19 6
-164 13 -321 17 l-285 6 -38 68 c-50 93 -61 99 -173 99 -51 0 -93 -4 -93 -8 0
-5 -12 -7 -27 -5 -16 2 -59 -5 -98 -16 -38 -11 -71 -18 -73 -17 -7 7 128 55
203 72 116 26 354 26 476 -1 60 -13 15 -23 -96 -22 -63 1 -115 -2 -115 -6 0
-5 -4 -5 -10 -2 -20 13 -9 -33 20 -78 23 -37 35 -47 57 -47 l28 -1 -30 -14
c-35 -16 -28 -20 9 -5 29 11 35 30 9 30 -15 0 -14 2 3 15 10 8 14 15 7 15 -6
0 -18 -7 -27 -15 -14 -14 -18 -12 -42 25 -15 22 -24 43 -20 47 3 3 25 7 48 7
36 1 43 -2 47 -22 3 -13 11 -23 16 -24 6 0 18 -4 28 -10 17 -8 18 -7 12 14 -4
12 -12 25 -16 26 -5 2 -9 10 -9 18 0 11 11 14 48 11 42 -4 48 -7 57 -35 13
-38 31 -57 20 -22 -4 14 -10 31 -12 38 -9 23 25 1 51 -33 15 -19 26 -35 26
-37 0 -2 -19 -2 -42 1 -41 3 -77 32 -70 54 1 5 -2 6 -8 2 -6 -4 -4 -15 5 -29
15 -23 15 -24 -15 -28 -17 -3 -33 -1 -36 4 -9 15 -44 9 -44 -8 0 -12 6 -15 24
-10 14 3 28 2 31 -4 3 -5 15 -10 26 -10 11 0 17 4 14 10 -4 6 5 8 22 5 15 -3
51 -7 78 -9 28 -2 50 -4 50 -5 0 -1 48 -3 108 -6 132 -6 187 -18 209 -44 19
-25 28 -27 28 -6 0 33 -107 61 -257 67 -40 1 -73 5 -73 9 0 18 -92 118 -122
132 -70 33 -244 50 -383 36z m450 -105 c49 -60 31 -54 -24 7 -25 28 -37 47
-28 43 9 -3 32 -26 52 -50z m-405 26 c0 -5 6 -7 14 -4 18 7 77 -91 69 -113 -3
-8 0 -13 7 -11 7 2 14 -2 17 -8 3 -8 -13 -11 -49 -10 -29 1 -80 -1 -113 -5
-49 -5 -40 -6 53 -7 90 -2 112 -5 112 -16 0 -12 -23 -15 -115 -18 -89 -2 -114
0 -110 10 3 7 -5 12 -20 12 -14 0 -25 5 -25 10 0 6 -18 10 -39 10 -22 0 -43 5
-46 10 -4 6 -19 9 -33 7 -15 -3 -33 1 -41 7 -11 9 -13 8 -9 -4 2 -8 15 -18 29
-22 16 -5 8 -6 -23 -4 -26 1 -45 -1 -43 -5 3 -4 -2 -10 -11 -13 -26 -10 -34
-7 -28 12 4 10 3 13 -3 6 -4 -6 -28 -15 -53 -19 -49 -8 -116 -32 -109 -40 3
-2 23 2 44 9 22 7 58 17 79 20 65 12 22 -17 -54 -35 -36 -9 -74 -20 -84 -24
-14 -6 -8 8 21 51 22 32 49 67 60 77 37 33 175 98 194 92 11 -4 19 -2 19 4 0
6 8 11 18 11 15 -1 15 -2 -3 -16 -11 -8 -28 -13 -37 -11 -10 3 -16 0 -15 -7 1
-6 -6 -10 -15 -8 -11 2 -24 -11 -38 -37 -24 -49 -25 -55 -4 -47 9 4 23 1 32
-6 13 -11 14 -10 8 10 -6 18 -3 22 16 23 17 1 18 3 6 6 -10 2 -18 8 -18 12 0
11 31 35 63 49 36 15 84 15 93 0 4 -6 3 -8 -3 -5 -6 4 -10 -1 -9 -11 1 -17 -4
-19 -55 -21 -37 -1 -48 -31 -11 -31 21 0 24 2 12 10 -13 8 -13 10 1 10 9 0 19
-3 23 -7 4 -5 13 -8 18 -8 6 0 13 -6 16 -14 4 -11 -2 -12 -23 -7 -17 4 -24 3
-20 -4 7 -12 42 -14 48 -2 3 4 8 31 12 60 l7 52 -31 0 c-17 0 -31 5 -31 11 0
7 11 8 29 4 17 -3 32 -2 36 4 8 14 165 15 165 1z m-212 -166 c23 1 31 -3 27
-13 -4 -10 2 -12 25 -8 17 4 30 2 30 -3 0 -6 -41 -10 -99 -10 -54 0 -120 -3
-147 -6 -34 -4 -45 -3 -35 4 8 6 20 8 28 5 7 -3 13 0 13 5 0 6 17 14 38 17 20
3 44 10 52 14 8 5 20 6 25 2 6 -4 25 -7 43 -7z m-232 -99 c-1 -43 -2 -45 -33
-45 -42 0 -83 -48 -83 -96 0 -39 -11 -42 -64 -20 -33 14 -33 14 -28 67 5 60
13 74 54 95 22 11 117 39 149 43 4 1 6 -19 5 -44z m-21 -135 c-3 -5 2 -10 12
-10 12 0 19 -8 20 -21 1 -15 -2 -19 -13 -15 -9 3 -20 6 -25 6 -5 0 -7 10 -5
23 6 29 5 27 12 27 3 0 2 -4 -1 -10z m1185 -101 c0 -9 20 -7 37 4 6 4 14 3 18
-3 3 -5 1 -10 -6 -10 -7 0 -9 -3 -6 -6 4 -4 13 -1 21 5 12 10 14 9 12 -4 -4
-24 -34 -55 -53 -54 -15 0 -15 2 2 9 18 7 19 8 3 15 -10 4 -25 4 -34 1 -10 -4
-14 -2 -11 6 2 7 1 20 -4 29 -5 11 -3 16 7 16 7 0 14 -4 14 -8z m-70 -24 c7
-13 16 -22 20 -20 5 3 11 -2 14 -11 6 -15 -1 -16 -58 -10 -68 7 -100 1 -90
-18 4 -6 -1 -3 -12 6 -14 14 -15 21 -6 30 7 7 12 20 12 30 0 15 9 18 53 18 47
0 55 -3 67 -25z"/>
<path d="M1276 1845 c-3 -9 -6 -32 -6 -50 0 -18 -6 -35 -12 -37 -7 -3 34 -8
91 -12 119 -7 130 -2 99 50 -25 42 -29 43 -17 2 13 -47 12 -48 -21 -48 -30 0
-37 8 -21 26 4 5 13 23 19 41 9 26 8 31 -4 26 -8 -3 -15 -19 -15 -37 -2 -28
-2 -27 -8 9 -6 39 -7 40 -52 43 -36 2 -48 -1 -53 -13z m79 -26 c12 -37 -19
-62 -51 -41 -9 5 -13 50 -5 58 7 9 52 -5 56 -17z"/>
<path d="M2224 1658 c20 -17 36 -37 36 -43 0 -16 35 -47 43 -38 4 3 7 1 7 -5
0 -18 -20 -25 -35 -12 -9 7 -15 8 -15 2 0 -6 -22 -9 -52 -7 -29 2 -43 1 -30
-2 12 -2 22 -12 22 -21 0 -14 2 -14 9 -3 5 8 18 12 30 8 12 -3 21 -1 21 5 0 5
5 6 10 3 6 -4 7 -12 3 -18 -3 -7 3 -3 15 7 12 11 25 16 29 12 4 -4 2 -10 -4
-14 -8 -5 -9 -13 -3 -22 6 -8 10 -10 11 -5 5 37 6 133 2 147 -4 18 -59 38
-106 38 l-29 0 36 -32z m72 3 c-4 -5 -1 -11 6 -13 18 -6 18 -49 0 -46 -25 5
-38 34 -23 52 14 17 26 22 17 7z"/>
<path d="M2058 1540 c22 -10 31 -30 11 -30 -5 0 -8 4 -5 9 6 9 -54 25 -62 16
-3 -3 0 -5 6 -5 7 0 12 -5 12 -11 0 -5 -3 -8 -7 -6 -5 3 -8 -5 -8 -18 0 -13 4
-21 9 -18 5 3 7 0 4 -8 -3 -8 -13 -16 -24 -18 -22 -4 -44 -20 -44 -32 0 -10
49 -4 59 7 3 4 -7 4 -22 2 -16 -3 -25 -2 -20 3 5 5 21 10 37 11 23 2 27 6 23
25 -2 13 1 23 7 23 6 0 5 4 -3 9 -10 7 -11 10 -1 16 8 5 18 1 25 -9 11 -14 14
-14 25 -1 7 8 16 12 21 9 5 -3 9 0 9 6 0 6 4 9 9 5 5 -3 13 0 17 6 5 9 -2 10
-25 6 -20 -4 -30 -3 -26 3 4 6 -6 10 -22 9 -27 0 -27 -1 -5 -9z"/>
<path d="M1683 1523 c3 -5 -3 -17 -14 -26 -10 -9 -18 -27 -18 -39 1 -17 2 -19
6 -5 8 32 23 17 23 -24 0 -46 24 -105 46 -113 9 -4 7 5 -7 23 -12 16 -19 34
-15 39 3 6 2 13 -4 17 -14 9 -12 56 4 87 14 26 13 29 -6 39 -11 6 -18 7 -15 2z"/>
<path d="M1961 1521 c-12 -8 -12 -12 -2 -25 19 -23 29 -20 27 9 -1 27 -4 29
-25 16z"/>
<path d="M2160 1520 c0 -5 8 -10 18 -10 15 0 15 -2 2 -11 -12 -8 -10 -9 9 -4
16 5 21 4 17 -4 -5 -7 2 -11 16 -11 19 0 20 2 8 11 -37 25 -70 39 -70 29z"/>
<path d="M1720 1485 c-11 -13 -10 -14 3 -10 8 4 18 2 22 -4 3 -6 12 -11 18
-11 7 0 4 7 -6 14 -18 14 -18 14 0 19 15 4 15 5 -3 6 -12 0 -27 -6 -34 -14z"/>
<path d="M2147 1493 c-9 -15 15 -67 33 -71 12 -3 13 -1 3 9 -23 23 -15 36 18
31 22 -3 27 -7 18 -13 -8 -5 2 -6 25 -2 28 4 37 3 32 -5 -4 -7 -2 -12 3 -12 6
0 11 9 11 19 0 11 3 26 6 35 4 9 1 16 -6 16 -6 0 -14 -9 -17 -20 -5 -17 -11
-19 -47 -14 -22 4 -45 7 -51 8 -5 0 -13 7 -16 15 -4 10 -8 11 -12 4z"/>
<path d="M2321 1481 c-9 -6 -10 -11 -2 -15 6 -4 11 -1 11 6 0 9 3 9 10 -2 7
-11 4 -17 -10 -22 -25 -9 -16 -38 10 -31 25 7 32 29 17 53 -13 22 -16 23 -36
11z"/>
<path d="M1706 1444 c-13 -34 -7 -44 30 -44 31 0 36 -3 31 -20 -3 -13 -1 -18
5 -13 7 3 8 1 4 -5 -10 -17 -31 -15 -46 3 -7 9 -15 13 -18 10 -11 -10 32 -45
55 -45 13 0 22 4 19 9 -3 5 1 14 9 21 18 15 19 36 3 46 -6 4 -8 3 -4 -4 3 -6
2 -13 -4 -17 -5 -3 -10 1 -10 9 0 12 -10 16 -36 16 -34 0 -36 2 -30 25 7 28 2
34 -8 9z"/>
<path d="M1250 1410 c64 -9 136 -12 128 -5 -2 3 -45 7 -94 9 -74 4 -80 3 -34
-4z"/>
<path d="M850 1402 c0 -6 4 -23 10 -37 11 -30 31 -26 23 5 -6 22 -33 49 -33
32z"/>
<path d="M1057 1337 c-4 -11 17 -14 109 -16 68 -1 114 2 114 8 0 10 -61 18
-156 21 -44 1 -63 -3 -67 -13z"/>
<path d="M1140 1171 c0 -5 5 -11 11 -13 19 -6 -22 -139 -46 -149 -14 -5 -5 -8
30 -7 28 0 42 2 33 5 -21 5 -21 2 -7 42 9 26 16 31 43 31 52 0 86 56 54 88
-14 14 -118 16 -118 3z m100 -35 c0 -28 -22 -49 -48 -44 -16 3 -17 8 -10 36 7
25 14 32 33 32 20 0 25 -5 25 -24z"/>
<path d="M1319 1159 c-15 -15 -19 -28 -14 -50 4 -17 2 -29 -4 -29 -19 0 -33
-38 -21 -59 15 -29 47 -35 76 -16 21 13 25 23 22 47 -4 21 1 37 14 50 23 23
23 33 -2 58 -25 25 -45 25 -71 -1z m61 -3 c0 -2 3 -11 6 -19 8 -22 -25 -51
-42 -36 -15 12 -19 41 -7 52 7 8 43 10 43 3z m-35 -96 c24 -27 13 -52 -22 -48
-31 3 -42 30 -23 53 16 20 23 19 45 -5z"/>
<path d="M1450 1165 c17 -21 -15 -152 -38 -158 -10 -3 3 -5 28 -6 29 0 40 2
31 8 -9 6 -11 18 -6 40 5 25 12 31 32 31 23 0 25 -3 19 -34 -5 -24 -2 -37 10
-47 14 -11 19 -10 35 10 11 13 17 26 14 29 -3 3 -12 -3 -21 -14 -15 -18 -15
-18 -10 5 3 13 1 32 -4 41 -6 12 -3 21 11 33 24 21 24 53 0 67 -11 5 -41 10
-67 10 -40 0 -45 -2 -34 -15z m88 -32 c-2 -22 -9 -29 -30 -31 -30 -4 -31 0
-22 36 4 15 14 22 31 22 21 0 24 -4 21 -27z"/>
<path d="M1865 1155 c-3 -8 -8 -23 -11 -32 -4 -10 -8 -25 -9 -33 -1 -8 -5 -31
-9 -51 -9 -45 15 -61 39 -26 22 32 18 46 -6 17 -17 -21 -19 -22 -15 -5 3 11 8
32 12 48 3 16 13 27 23 27 12 0 13 2 3 9 -9 5 -11 17 -6 34 7 29 -13 39 -21
12z"/>
<path d="M1615 1095 c-14 -13 -25 -35 -25 -49 0 -23 23 -56 39 -56 11 0 41 34
41 46 0 5 -7 1 -15 -10 -8 -11 -21 -16 -30 -13 -19 8 -20 37 -1 37 8 0 24 8
37 19 20 16 21 21 10 35 -18 22 -28 20 -56 -9z"/>
<path d="M1707 1102 c-10 -10 -17 -25 -17 -33 1 -8 8 -3 16 11 l15 25 -5 -30
c-3 -16 -8 -40 -12 -52 -10 -37 14 -27 30 12 11 25 13 43 6 60 -11 30 -12 30
-33 7z"/>
<path d="M1767 1109 c-9 -6 -17 -15 -17 -21 0 -6 7 -5 17 3 15 13 16 12 9 -11
-16 -52 -18 -78 -5 -85 13 -9 49 28 49 49 0 6 -10 0 -21 -14 -17 -20 -20 -21
-14 -5 13 38 17 82 8 88 -4 3 -16 1 -26 -4z"/>
</g>
</svg>
